<svg xmlns="http://www.w3.org/2000/svg" xmlns:xlink="http://www.w3.org/1999/xlink" x="0" y="0" width="661.8181762695312" height="374.63067626953125" style="
        width:661.8181762695312px;
        height:374.63067626953125px;
        background: #FFF;
        fill: none;
">
        <svg xmlns="http://www.w3.org/2000/svg"><g><defs><pattern id=".2716305789462481" width="30" height="30" patternUnits="userSpaceOnUse"><path d="M 30 0 L 0 0 0 30" fill="none" stroke="lightgray" stroke-width="0.5"/></pattern></defs><rect width="100%" height="100%" fill="url(#.2716305789462481)" stroke="lightgray" stroke-width="0.5"/></g></svg>
        
        <svg xmlns="http://www.w3.org/2000/svg" class="role-diagram-draw-area"><g class="shapes-region" style="stroke: black; fill: none;"><g class="composite-shape axis2d" style="stroke-width: 1; stroke: rgb(0, 0, 0);"><path class="real" d=" M42,239.73 L240.28,239.73 M61.83,75.28 L61.83,258"/><path d=" M233.28,234.73 L240.28,239.73 L233.28,244.73"/><path d=" M56.83,82.28 L61.83,75.28 L66.83,82.28"/></g><g class="composite-shape axis2d" style="stroke-width: 1; stroke: rgb(0, 0, 0);"><path class="real" d=" M370.28,243.03 L573.28,243.03 M390.58,81.28 L390.58,261"/><path d=" M566.28,238.03 L573.28,243.03 L566.28,248.03"/><path d=" M385.58,88.28 L390.58,81.28 L395.58,88.28"/></g><g class="arrow-line"><path class="connection real" stroke-dasharray="" d="  M-2.72,181.28 L164.28,344.28" style="stroke: rgb(0, 0, 0); stroke-width: 1; fill: none; fill-opacity: 1;"/></g><g class="arrow-line"><path class="connection real" stroke-dasharray="" d="  M-36.72,89.28 L232.28,351.28" style="stroke: rgb(0, 0, 0); stroke-width: 1; fill: none; fill-opacity: 1;"/></g><g/></g><g/><g/><g/></svg>
        <svg xmlns="http://www.w3.org/2000/svg" xmlns:xlink="http://www.w3.org/1999/xlink" width="660" height="372.8125" style="width:660px;height:372.8125px;font-family:Asana-Math, Asana;background:#FFF;"></svg>
</svg>
